/* XPM */
static char * nomnom_xpm[] = {
"32 32 630 2",
"  	c None",
". 	c #AB834B",
"+ 	c #AF854B",
"@ 	c #AF8951",
"# 	c #B28E58",
"$ 	c #B8965E",
"% 	c #B4915B",
"& 	c #B28B54",
"* 	c #B0894E",
"= 	c #AB854D",
"- 	c #A77A3F",
"; 	c #B48A50",
"> 	c #DBB882",
", 	c #F4DDB7",
"' 	c #FBEFD8",
") 	c #FDF8EB",
"! 	c #FEFBF5",
"~ 	c #FEF9F0",
"{ 	c #FCF3DF",
"] 	c #F6E4C2",
"^ 	c #E0C28F",
"/ 	c #B9915A",
"( 	c #A67B41",
"_ 	c #A5763B",
": 	c #AB7D3F",
"< 	c #E5BC7E",
"[ 	c #FAE9CD",
"} 	c #FAE7C3",
"| 	c #FAE9C2",
"1 	c #FCEECC",
"2 	c #FCF4D8",
"3 	c #FDF6DF",
"4 	c #FDF6E1",
"5 	c #FCF3DA",
"6 	c #FCF0D2",
"7 	c #FBEFD4",
"8 	c #FCF0DB",
"9 	c #EAC691",
"0 	c #AC8046",
"a 	c #9E723C",
"b 	c #A27439",
"c 	c #C88F44",
"d 	c #F5D2A0",
"e 	c #F8DCB0",
"f 	c #F6D599",
"g 	c #F9E5B8",
"h 	c #FCF1D3",
"i 	c #FDF8E3",
"j 	c #FEFBED",
"k 	c #FEFCF1",
"l 	c #FDF7E1",
"m 	c #FBEFCE",
"n 	c #F9E3B6",
"o 	c #FAE7C4",
"p 	c #F8DFB7",
"q 	c #CD984F",
"r 	c #986E39",
"s 	c #A2753B",
"t 	c #DBA35F",
"u 	c #F6D3A4",
"v 	c #F3C580",
"w 	c #F5CD88",
"x 	c #F8DFAC",
"y 	c #FBECC5",
"z 	c #FCF4D7",
"A 	c #FDF9E1",
"B 	c #FEFCE7",
"C 	c #FEFDEA",
"D 	c #FDFDE9",
"E 	c #FDFBE6",
"F 	c #FDF8DF",
"G 	c #FCF3D4",
"H 	c #FAE9C1",
"I 	c #F8DCA5",
"J 	c #F7D59E",
"K 	c #F8DEB7",
"L 	c #DFAC6B",
"M 	c #946B37",
"N 	c #A17338",
"O 	c #D89C55",
"P 	c #F2C082",
"Q 	c #EDAA4A",
"R 	c #F2BD6A",
"S 	c #F6D18C",
"T 	c #F8DEA2",
"U 	c #FBEAB7",
"V 	c #FCF3C8",
"W 	c #FDF9D3",
"X 	c #FDFCD9",
"Y 	c #FDFDDB",
"Z 	c #FDFDDA",
"` 	c #FDFBD7",
" .	c #FCF7CF",
"..	c #FBF0C3",
"+.	c #F9E7B2",
"@.	c #F8DCA0",
"#.	c #F6CE88",
"$.	c #F3BD6A",
"%.	c #F5CB91",
"&.	c #DBA55F",
"*.	c #8F6633",
"=.	c #9F7036",
"-.	c #C17E33",
";.	c #F2BE82",
">.	c #EA972E",
",.	c #EDA946",
"'.	c #F1BC62",
").	c #F6D491",
"!.	c #FAE6B4",
"~.	c #FCF0C9",
"{.	c #FDF5CF",
"].	c #FCF9CA",
"^.	c #FCFCCA",
"/.	c #FDFDCE",
"(.	c #FCFDCC",
"_.	c #FBFBC8",
":.	c #FCF7CB",
"<.	c #FCF3CA",
"[.	c #FBEEC4",
"}.	c #FAE2AE",
"|.	c #F6CE81",
"1.	c #F1BB61",
"2.	c #F4C890",
"3.	c #BF8036",
"4.	c #8D6330",
"5.	c #9F7035",
"6.	c #ECAB64",
"7.	c #EA9C3E",
"8.	c #E8911F",
"9.	c #EDA539",
"0.	c #F2BF66",
"a.	c #F8DA9C",
"b.	c #FBEABD",
"c.	c #FDF6DE",
"d.	c #FEFBE8",
"e.	c #FDFBDB",
"f.	c #FCFCC8",
"g.	c #FCFDC7",
"h.	c #FDFDC6",
"i.	c #FCFBCC",
"j.	c #FDF9D4",
"k.	c #FCF6D1",
"l.	c #FDF7E4",
"m.	c #FCEFD0",
"n.	c #F8DA9F",
"o.	c #F1B654",
"p.	c #EDA437",
"q.	c #EDA443",
"r.	c #F0B875",
"s.	c #92662E",
"t.	c #996D34",
"u.	c #D28B42",
"v.	c #ECA557",
"w.	c #E5830E",
"x.	c #E9901A",
"y.	c #EB9E28",
"z.	c #EFAF40",
"A.	c #F1BE58",
"B.	c #F3BC4B",
"C.	c #EDC25F",
"D.	c #FADF95",
"E.	c #FCF6C7",
"F.	c #FBFBC2",
"G.	c #FDFCC0",
"H.	c #FDFBBE",
"I.	c #FBF9BE",
"J.	c #FBEDA5",
"K.	c #F4D271",
"L.	c #F1C155",
"M.	c #F6CB6F",
"N.	c #F6CC78",
"O.	c #EFAE3E",
"P.	c #E88F17",
"Q.	c #EEAD5E",
"R.	c #D5954D",
"S.	c #855E2D",
"T.	c #9A6F38",
"U.	c #ECA661",
"V.	c #E47F11",
"W.	c #E6840D",
"X.	c #E88E14",
"Y.	c #EA9A1F",
"Z.	c #EEA123",
"`.	c #BE7D1C",
" +	c #211606",
".+	c #0E0A03",
"++	c #855D22",
"@+	c #F8C564",
"#+	c #FBEE9F",
"$+	c #FDF9B0",
"%+	c #FDF9AF",
"&+	c #FAE28A",
"*+	c #9E7B3B",
"=+	c #160F06",
"-+	c #181004",
";+	c #A76C17",
">+	c #F29F21",
",+	c #EDA324",
"'+	c #EA991E",
")+	c #E88E15",
"!+	c #E78816",
"~+	c #EFB26F",
"{+	c #8F6533",
"]+	c #B27A3D",
"^+	c #E99745",
"/+	c #E37A07",
"(+	c #E88E13",
"_+	c #EA981B",
":+	c #EF9A1B",
"<+	c #573C0D",
"[+	c #886B24",
"}+	c #CEAD47",
"|+	c #130F06",
"1+	c #F6AE40",
"2+	c #FBD873",
"3+	c #FDF598",
"4+	c #FDF394",
"5+	c #F9CF66",
"6+	c #231F0F",
"7+	c #BBA34B",
"8+	c #A58733",
"9+	c #3B2708",
"0+	c #F29718",
"a+	c #EE9E1E",
"b+	c #EA981A",
"c+	c #E6850D",
"d+	c #EBA04D",
"e+	c #B97C3D",
"f+	c #7C582B",
"g+	c #8F6631",
"h+	c #C68945",
"i+	c #E58525",
"j+	c #E37906",
"k+	c #E5830D",
"l+	c #E88D13",
"m+	c #EA9719",
"n+	c #EC9F1F",
"o+	c #E3A326",
"p+	c #EAB334",
"q+	c #F5C646",
"r+	c #DEBB4B",
"s+	c #F8CA52",
"t+	c #FAE26C",
"u+	c #FCED76",
"v+	c #FCEB74",
"w+	c #FADE63",
"x+	c #E3C956",
"y+	c #F7D151",
"z+	c #F0C23F",
"A+	c #DDA42A",
"B+	c #F1A422",
"C+	c #ECA020",
"D+	c #E78D2B",
"E+	c #D8924C",
"F+	c #7A5629",
"G+	c #8B6431",
"H+	c #CD8E48",
"I+	c #E37911",
"J+	c #E37806",
"K+	c #E5820C",
"L+	c #E78C12",
"M+	c #EA9618",
"N+	c #EEAA26",
"O+	c #F1B42E",
"P+	c #F4C23B",
"Q+	c #F6CF46",
"R+	c #F8D94F",
"S+	c #FAE057",
"T+	c #FCE35B",
"U+	c #FBE259",
"V+	c #FADF55",
"W+	c #F8D94E",
"X+	c #F7D044",
"Y+	c #F4C63C",
"Z+	c #F2B930",
"`+	c #EFAA26",
" @	c #ECA01F",
".@	c #EA9619",
"+@	c #E88C13",
"@@	c #E5830C",
"#@	c #E58014",
"$@	c #E69B52",
"%@	c #755429",
"&@	c #886231",
"*@	c #CF8E48",
"=@	c #DC7006",
"-@	c #E27705",
";@	c #E5800B",
">@	c #E78A12",
",@	c #E9951C",
"'@	c #EDA024",
")@	c #EFA92D",
"!@	c #F3B938",
"~@	c #F4C43F",
"{@	c #F6D046",
"]@	c #F8D74A",
"^@	c #F9DD4F",
"/@	c #FAE050",
"(@	c #FADD4E",
"_@	c #F8DA4A",
":@	c #F8D245",
"<@	c #F6C93F",
"[@	c #F2BE38",
"}@	c #F0B02D",
"|@	c #ECA122",
"1@	c #E9961C",
"2@	c #E78B15",
"3@	c #DE7E0C",
"4@	c #DF7708",
"5@	c #E99E54",
"6@	c #725228",
"7@	c #846031",
"8@	c #CA8C46",
"9@	c #D97817",
"0@	c #B26304",
"a@	c #AF6304",
"b@	c #BB6E0B",
"c@	c #C67B16",
"d@	c #D18A25",
"e@	c #D99938",
"f@	c #E1AA4B",
"g@	c #E9BA61",
"h@	c #EEC977",
"i@	c #F3D588",
"j@	c #F7E093",
"k@	c #F9E99D",
"l@	c #FCECA1",
"m@	c #FAE9A0",
"n@	c #F8E196",
"o@	c #F5D589",
"p@	c #EFC876",
"q@	c #E7B860",
"r@	c #DB9F41",
"s@	c #C78324",
"t@	c #B46F14",
"u@	c #9F5E08",
"v@	c #935402",
"w@	c #D16E03",
"x@	c #E3984D",
"y@	c #755228",
"z@	c #815D2F",
"A@	c #C1853E",
"B@	c #DA8E40",
"C@	c #BB6B0F",
"D@	c #8E7041",
"E@	c #957D55",
"F@	c #997543",
"G@	c #9F7536",
"H@	c #A7762F",
"I@	c #AA7527",
"J@	c #AE7725",
"K@	c #B37A25",
"L@	c #BA7D27",
"M@	c #C28329",
"N@	c #C9862B",
"O@	c #C6842B",
"P@	c #BF7F27",
"Q@	c #B57724",
"R@	c #AD7223",
"S@	c #A56F20",
"T@	c #A26D20",
"U@	c #976A26",
"V@	c #916B32",
"W@	c #8E7349",
"X@	c #877C67",
"Y@	c #9A5907",
"Z@	c #D26E05",
"`@	c #DC9347",
" #	c #6B4D26",
".#	c #7E5B2D",
"+#	c #B27A35",
"@#	c #CD7E2A",
"##	c #BE7018",
"$#	c #9E7846",
"%#	c #A6ABA1",
"&#	c #A5AAA0",
"*#	c #A5ABA0",
"=#	c #AEB3A7",
"-#	c #B6BAB0",
";#	c #AEAFAA",
">#	c #CCD0CA",
",#	c #D5D6D2",
"'#	c #C8C9C6",
")#	c #A1A19E",
"!#	c #BAB5AD",
"~#	c #BEBEB9",
"{#	c #C3C5C1",
"]#	c #B3B5B0",
"^#	c #B1B4AE",
"/#	c #BBC0B5",
"(#	c #ACB2A6",
"_#	c #A1A79B",
":#	c #A3A89E",
"<#	c #96998E",
"[#	c #A15D08",
"}#	c #D5700A",
"|#	c #CD873C",
"1#	c #694A25",
"2#	c #7C572B",
"3#	c #A06F2F",
"4#	c #C1731B",
"5#	c #C17722",
"6#	c #AA712B",
"7#	c #B5BAB0",
"8#	c #B8BFB3",
"9#	c #B8BFB2",
"0#	c #BCC3B6",
"a#	c #C6CCC1",
"b#	c #BDBFBA",
"c#	c #DADDD6",
"d#	c #E4E6E1",
"e#	c #ECEEEA",
"f#	c #C6C7C3",
"g#	c #F5F6F4",
"h#	c #EEEFEC",
"i#	c #E5E8E3",
"j#	c #D1D5CE",
"k#	c #C2C4BE",
"l#	c #C8CDC3",
"m#	c #BEC4B8",
"n#	c #B6BDB0",
"o#	c #B6BBB0",
"p#	c #A4A293",
"q#	c #A25E07",
"r#	c #D67716",
"s#	c #B47732",
"t#	c #664923",
"u#	c #885F29",
"v#	c #B77323",
"w#	c #C67F2F",
"x#	c #B46810",
"y#	c #BFC5BA",
"z#	c #C7CCC3",
"A#	c #DADED7",
"B#	c #E4E7E2",
"C#	c #EEF0EC",
"D#	c #DEDFDC",
"E#	c #F8F9F8",
"F#	c #F0F1EE",
"G#	c #E6E8E4",
"H#	c #DCDFD9",
"I#	c #C6CAC2",
"J#	c #C8CEC3",
"K#	c #BEC5B8",
"L#	c #B7BEB1",
"M#	c #BCC2B6",
"N#	c #B29871",
"O#	c #AC6002",
"P#	c #D17E26",
"Q#	c #8D5F28",
"R#	c #5F4623",
"S#	c #76542B",
"T#	c #AD7429",
"U#	c #C17825",
"V#	c #AB5F03",
"W#	c #ADA38C",
"X#	c #BBC2B5",
"Y#	c #B8BFB1",
"Z#	c #BDC3B6",
"`#	c #C6CBC0",
" $	c #CDD1C8",
".$	c #DBDED7",
"+$	c #EEF0ED",
"@$	c #EAEBEA",
"#$	c #FAFAFA",
"$$	c #F0F2EF",
"%$	c #E6E9E4",
"&$	c #DCE0D9",
"*$	c #CCD0C7",
"=$	c #B1782F",
"-$	c #BA6504",
";$	c #C8802F",
">$	c #674923",
",$	c #725127",
"'$	c #8B5F21",
")$	c #B57121",
"!$	c #BA7625",
"~$	c #AE6812",
"{$	c #B6BCAF",
"]$	c #C7CBC1",
"^$	c #CFD3CB",
"/$	c #E5E7E2",
"($	c #EFF0ED",
"_$	c #F3F3F1",
":$	c #FAFBFA",
"<$	c #F1F2EF",
"[$	c #DDE0D9",
"}$	c #CFD4CC",
"|$	c #C9CEC3",
"1$	c #B7BEB0",
"2$	c #AB956F",
"3$	c #A35E07",
"4$	c #CA7820",
"5$	c #9A6322",
"6$	c #5D421F",
"7$	c #6E4E25",
"8$	c #A3691E",
"9$	c #BF7A2B",
"0$	c #A8630D",
"a$	c #AF7934",
"b$	c #C7CCC1",
"c$	c #D1D5CC",
"d$	c #F5F5F4",
"e$	c #F9FAF9",
"f$	c #D2D6CE",
"g$	c #AFAD97",
"h$	c #A5610C",
"i$	c #C2731B",
"j$	c #BB7423",
"k$	c #5E421E",
"l$	c #6B4D25",
"m$	c #77521E",
"n$	c #AA6C1D",
"o$	c #C07F31",
"p$	c #A56008",
"q$	c #A87C41",
"r$	c #BAC0B2",
"s$	c #D0D5CC",
"t$	c #E4E7E1",
"u$	c #F6F7F5",
"v$	c #F7F8F7",
"w$	c #EFF1EE",
"x$	c #E6E8E3",
"y$	c #C7CCC2",
"z$	c #B3A07C",
"A$	c #A3620E",
"B$	c #BE7723",
"C$	c #C07522",
"D$	c #774D1A",
"E$	c #573E1D",
"F$	c #7F551B",
"G$	c #AA6917",
"H$	c #C98D4B",
"I$	c #AD6812",
"J$	c #A3610C",
"K$	c #B69E75",
"L$	c #CFD2C9",
"M$	c #E3E6E1",
"N$	c #ECEEEB",
"O$	c #F4F5F3",
"P$	c #DBDFD8",
"Q$	c #CAC4B0",
"R$	c #A8722C",
"S$	c #A6620C",
"T$	c #CE8D47",
"U$	c #BE701A",
"V$	c #89591A",
"W$	c #543C1C",
"X$	c #614623",
"Y$	c #7C5319",
"Z$	c #AB6C1B",
"`$	c #CF9B60",
" %	c #D29F65",
".%	c #AC640D",
"+%	c #A7691A",
"@%	c #B9935E",
"#%	c #C8AF88",
"$%	c #D8C9B0",
"%%	c #E9E3D8",
"&%	c #E8E0D3",
"*%	c #D2BE9F",
"=%	c #BE9A66",
"-%	c #AC7730",
";%	c #A15F09",
">%	c #C48740",
",%	c #DEAC75",
"'%	c #BC721E",
")%	c #86581C",
"!%	c #513A1D",
"~%	c #5B411F",
"{%	c #6B481B",
"]%	c #A2671C",
"^%	c #BA7B2E",
"/%	c #D9AD79",
"(%	c #D09D62",
"_%	c #BF7E32",
":%	c #B87524",
"<%	c #AE6C1B",
"[%	c #A76511",
"}%	c #A86512",
"|%	c #B47324",
"1%	c #C07E31",
"2%	c #D19A5C",
"3%	c #DDAF7B",
"4%	c #C88235",
"5%	c #B47224",
"6%	c #734E21",
"7%	c #4F381B",
"8%	c #453218",
"9%	c #583F1D",
"0%	c #7D521B",
"a%	c #AD7329",
"b%	c #C08540",
"c%	c #CD9759",
"d%	c #D7A46C",
"e%	c #E1B687",
"f%	c #E7C39C",
"g%	c #E2B788",
"h%	c #DAA76F",
"i%	c #D39B5C",
"j%	c #C78941",
"k%	c #B8792C",
"l%	c #90632B",
"m%	c #533D1D",
"n%	c #412E16",
"o%	c #151008",
"p%	c #463218",
"q%	c #533B1D",
"r%	c #6A4A21",
"s%	c #8F6228",
"t%	c #A77636",
"u%	c #B5803D",
"v%	c #BD8540",
"w%	c #B98441",
"x%	c #AE7D41",
"y%	c #9C7138",
"z%	c #785830",
"A%	c #574023",
"B%	c #463217",
"C%	c #171109",
"D%	c #0B0904",
"E%	c #2B2010",
"F%	c #453217",
"G%	c #4D3719",
"H%	c #4F391C",
"I%	c #503A1E",
"J%	c #503A1C",
"K%	c #4E381A",
"L%	c #2C2010",
"M%	c #0E0905",
"                                                                ",
"                      . + @ # $ % & * =                         ",
"                  - ; > , ' ) ! ~ { ] ^ / (                     ",
"              _ : < [ } | 1 2 3 4 5 6 7 8 9 0 a                 ",
"            b c d e f g h i j k k j l m n o p q r               ",
"          s t u v w x y z A B C D E F G H I J K L M             ",
"        N O P Q R S T U V W X Y Z `  ...+.@.#.$.%.&.*.          ",
"      =.-.;.>.,.'.).!.~.{.].^./.(._.:.<.[.}.|.1.,.2.3.4.        ",
"      5.6.7.8.9.0.a.b.c.d.e.f.g.h.i.j.k.l.m.n.o.p.q.r.s.        ",
"    t.u.v.w.x.y.z.A.B.C.D.E.F.G.H.I.J.K.L.M.N.O.y.P.Q.R.S.      ",
"    T.U.V.W.X.Y.Z.`. +.+++@+#+$+%+&+*+=+-+;+>+,+'+)+!+~+{+      ",
"    ]+^+/+W.(+_+:+<+[+}+|+1+2+3+4+5+6+7+8+9+0+a+b+X.c+d+e+f+    ",
"  g+h+i+j+k+l+m+n+o+p+q+r+s+t+u+v+w+x+y+z+A+B+C+b+(+W.D+E+F+    ",
"  G+H+I+J+K+L+M+n+N+O+P+Q+R+S+T+U+V+W+X+Y+Z+`+ @.@+@@@#@$@%@    ",
"  &@*@=@-@;@>@,@'@)@!@~@{@]@^@/@/@(@_@:@<@[@}@|@1@2@3@4@5@6@    ",
"  7@8@9@0@a@b@c@d@e@f@g@h@i@j@k@l@m@n@o@p@q@r@s@t@u@v@w@x@y@    ",
"  z@A@B@C@D@E@F@G@H@I@J@K@L@M@N@O@P@Q@R@S@T@U@V@W@X@Y@Z@`@ #    ",
"  .#+#@###$#%#&#*#=#-#;#>#,#'#)#!#~#{#]#^#/#(#_#:#<#[#}#|#1#    ",
"  2#3#4#5#6#7#8#9#0#a#b#c#d#e#f#g#h#i#j#k#l#m#n#o#p#q#r#s#t#    ",
"    u#v#w#x#y#0#9#0#a#z#A#B#C#D#E#F#G#H#I#J#K#L#M#N#O#P#Q#R#    ",
"    S#T#U#V#W#X#Y#Z#`# $.$B#+$@$#$$$%$&$*$J#K#Y#M#=$-$;$>$      ",
"    ,$'$)$!$~${$Y#Z#]$^$.$/$($_$:$<$%$[$}$|$K#1$2$3$4$5$6$      ",
"      7$8$9$0$a$1$Z#b$c$A#B#+$d$e$$$%$&$f$J#K#g$h$i$j$k$        ",
"      l$m$n$o$p$q$r$a#s$A#t$h#u$v$w$x$H#f$y$z$A$B$C$D$E$        ",
"        >$F$G$H$I$J$K$L$c#M$N$O$g#C#/$P$Q$R$S$T$U$V$W$          ",
"          X$Y$Z$`$ %.%+%@%#%$%%%&%*%=%-%;%>%,%'%)%!%            ",
"            ~%{%]%^%/%(%_%:%<%[%}%|%1%2%3%4%5%6%7%              ",
"              8%9%0%a%b%c%d%e%f%g%h%i%j%k%l%m%n%                ",
"                o%p%q%r%s%t%u%v%w%x%y%z%A%B%C%                  ",
"                    D%E%F%G%H%I%J%K%B%L%M%                      ",
"                                                                ",
"                                                                "};
